<svg width="335" height="342" viewBox="0 0 335 342" fill="none" xmlns="http://www.w3.org/2000/svg">
<path d="M280.021 2C309.283 2.00023 333 25.7518 333 55.0449V286.955C333 316.248 309.283 340 280.021 340H240.676C237.558 340 235.034 337.469 235.034 334.354V7.64648C235.034 4.5307 237.558 2.00008 240.676 2H280.021ZM123.365 2L123.656 2.00781C126.639 2.15942 129.007 4.62819 129.007 7.64648V63.8389H205.178V171.935H129.007V334.284C129.007 337.4 126.483 339.93 123.365 339.93H7.6416C4.52362 339.93 2.00012 337.4 2 334.284V7.64648C2 4.53065 4.52355 2 7.6416 2H123.365Z" fill="#4AA4B6" stroke="#4AA4B6" stroke-width="4"/>
</svg>
